<?xml version="1.0" encoding="utf-8"?>
<svg viewBox="245.904 226.629 864.488 312.256" fill-rule="evenodd" xmlns="http://www.w3.org/2000/svg">
  <path d="M 387.446 478.74 Q 366.326 478.74 350.726 471.78 Q 335.126 464.82 325.526 452.82 L 346.406 429.78 Q 355.526 439.86 366.446 444.66 Q 377.366 449.46 388.646 449.46 Q 401.606 449.46 408.326 443.7 Q 415.046 437.94 415.046 427.14 Q 415.046 418.26 409.886 413.7 Q 404.726 409.14 392.486 407.22 L 374.966 404.34 Q 352.406 400.5 342.326 387.66 Q 332.246 374.82 332.246 356.34 Q 332.246 332.1 348.086 318.78 Q 363.926 305.46 392.486 305.46 Q 411.926 305.46 426.326 311.46 Q 440.726 317.46 449.606 327.78 L 429.206 350.58 Q 422.486 343.14 413.366 338.94 Q 404.246 334.74 392.726 334.74 Q 368.486 334.74 368.486 354.66 Q 368.486 363.3 373.886 367.62 Q 379.286 371.94 391.526 374.1 L 409.046 377.22 Q 429.446 380.82 440.486 392.58 Q 451.526 404.34 451.526 424.26 Q 451.526 436.02 447.446 445.98 Q 443.366 455.94 435.206 463.26 Q 427.046 470.58 415.166 474.66 Q 403.286 478.74 387.446 478.74 Z" style="fill: rgb(51, 51, 51); white-space: pre;"/>
  <path d="M 552.081 337.86 L 552.081 475.86 L 516.081 475.86 L 516.081 337.86 L 467.841 337.86 L 467.841 308.34 L 600.321 308.34 L 600.321 337.86 Z" style="fill: rgb(51, 51, 51); white-space: pre;"/>
  <path d="M 678.084 478.74 Q 644.484 478.74 628.524 455.94 Q 612.564 433.14 612.564 392.1 Q 612.564 351.06 628.524 328.26 Q 644.484 305.46 678.084 305.46 Q 711.684 305.46 727.644 328.26 Q 743.604 351.06 743.604 392.1 Q 743.604 433.14 727.644 455.94 Q 711.684 478.74 678.084 478.74 Z M 678.084 450.42 Q 694.164 450.42 700.524 439.14 Q 706.884 427.86 706.884 407.7 L 706.884 376.5 Q 706.884 356.34 700.524 345.06 Q 694.164 333.78 678.084 333.78 Q 662.004 333.78 655.644 345.06 Q 649.284 356.34 649.284 376.5 L 649.284 407.7 Q 649.284 427.86 655.644 439.14 Q 662.004 450.42 678.084 450.42 Z M 678.084 406.26 Q 669.684 406.26 666.444 402.9 Q 663.204 399.54 663.204 394.74 L 663.204 389.46 Q 663.204 384.66 666.444 381.3 Q 669.684 377.94 678.084 377.94 Q 686.484 377.94 689.724 381.3 Q 692.964 384.66 692.964 389.46 L 692.964 394.74 Q 692.964 399.54 689.724 402.9 Q 686.484 406.26 678.084 406.26 Z" style="fill: rgb(51, 51, 51); white-space: pre;"/>
  <path d="M 803.839 475.86 L 768.319 475.86 L 768.319 308.34 L 833.119 308.34 Q 845.359 308.34 854.959 312.06 Q 864.559 315.78 871.159 322.74 Q 877.759 329.7 881.119 339.54 Q 884.479 349.38 884.479 361.62 Q 884.479 379.38 876.799 392.1 Q 869.119 404.82 854.959 408.9 L 887.839 475.86 L 848.479 475.86 L 820.399 413.7 L 803.839 413.7 Z M 824.479 385.86 Q 837.199 385.86 842.119 381.06 Q 847.039 376.26 847.039 365.22 L 847.039 358.02 Q 847.039 346.98 842.119 342.18 Q 837.199 337.38 824.479 337.38 L 803.839 337.38 L 803.839 385.86 Z" style="fill: rgb(51, 51, 51); white-space: pre;"/>
  <path d="M 913.281 475.86 L 913.281 308.34 L 1020.321 308.34 L 1020.321 337.86 L 949.281 337.86 L 949.281 376.26 L 1017.921 376.26 L 1017.921 405.78 L 949.281 405.78 L 949.281 446.34 L 1020.321 446.34 L 1020.321 475.86 Z" style="fill: rgb(51, 51, 51); white-space: pre;"/>
</svg>