<svg xmlns="http://www.w3.org/2000/svg"  viewBox="0 0 50 50" width="50px" height="50px"><path d="M49.771,4.364C49.582,4.134,49.299,4,49,4H9C8.521,4,8.11,4.339,8.019,4.809l-8,41c-0.058,0.293,0.02,0.597,0.21,0.827 C0.418,46.866,0.701,47,1,47h40c0.479,0,0.89-0.339,0.981-0.809l8-41C50.039,4.898,49.962,4.595,49.771,4.364z M40.828,23.876 l-8.766,6.944l5.869,9.427C38.125,40.581,37.885,41,37.499,41h-5.216c-0.176,0-0.338-0.092-0.429-0.243l-3.838-6.397l-1.913,1.674 l-1.016,4.574C25.036,40.837,24.833,41,24.599,41H20.5c-0.32,0-0.557-0.296-0.488-0.608L23,27H9.496 c-0.275,0-0.498-0.221-0.5-0.496c-0.003-0.552-0.003-1.414,0.025-1.787c0.387-5.125,6.271-6.496,10.728-7.626 C21.453,16.658,25,16,25,15c0-1.313-2.604-2-4-2c-3.896,0-4.757,1.788-4.947,2.605C16,15.835,15.802,16,15.566,16l-4.06,0 c-0.311,0-0.549-0.277-0.498-0.585C11.417,12.911,14.42,9,21,9c3.093,0,9,1.629,9,6c0,3.869-5.393,4.984-9.268,5.968 c-2.496,0.633-4.581,1.218-5.962,2.032H24h2h2.5c0.32,0,0.557,0.296,0.488,0.608L27.667,29l7.195-5.887 C34.951,23.04,35.063,23,35.178,23h5.321C40.961,23,41.176,23.572,40.828,23.876z"/></svg>